<?xml version="1.0" encoding="utf-8"?>
<!-- Generator: Adobe Illustrator 21.0.0, SVG Export Plug-In . SVG Version: 6.00 Build 0)  -->
<svg version="1.1" id="Layer_1" xmlns="http://www.w3.org/2000/svg" xmlns:xlink="http://www.w3.org/1999/xlink" x="0px" y="0px"
	 viewBox="0 0 113.1 20.2" style="enable-background:new 0 0 113.1 20.2;" xml:space="preserve">
<style type="text/css">
	.st0{fill:#FFC000;}
	.st1{fill:#458FFF;}
</style>
<g>
	<path class="st0" d="M3.7,3.8v7.9c0,0.6,0.1,1.1,0.4,1.4c0.3,0.3,0.7,0.5,1.2,0.5c0.4,0,0.8-0.1,1.1-0.3c0.4-0.2,0.7-0.4,1-0.7V3.8
		h3.7v12.4H9c-0.5,0-0.8-0.2-0.9-0.6l-0.2-0.7c-0.2,0.2-0.5,0.4-0.7,0.6c-0.3,0.2-0.5,0.3-0.8,0.5c-0.3,0.1-0.6,0.2-0.9,0.3
		c-0.3,0.1-0.7,0.1-1.1,0.1c-0.7,0-1.3-0.1-1.8-0.4c-0.5-0.2-1-0.6-1.3-1c-0.4-0.4-0.6-0.9-0.8-1.5C0.1,13,0,12.3,0,11.7V3.8H3.7z"
		/>
	<path class="st0" d="M14.4,20.2V3.8h2.3c0.2,0,0.4,0.1,0.6,0.2c0.2,0.1,0.3,0.3,0.3,0.5l0.3,0.9c0.2-0.3,0.5-0.5,0.8-0.7
		C19,4.4,19.3,4.2,19.6,4c0.3-0.2,0.7-0.3,1-0.4c0.4-0.1,0.8-0.1,1.2-0.1c0.6,0,1.2,0.1,1.8,0.4c0.6,0.3,1,0.7,1.4,1.2
		c0.4,0.5,0.7,1.2,0.9,2s0.3,1.7,0.3,2.7c0,0.9-0.1,1.8-0.4,2.6c-0.3,0.8-0.6,1.5-1.1,2.1c-0.5,0.6-1,1-1.7,1.4
		c-0.7,0.3-1.4,0.5-2.2,0.5c-0.6,0-1.2-0.1-1.6-0.3s-0.8-0.4-1.2-0.7v4.8H14.4z M20.5,6.4c-0.3,0-0.5,0-0.7,0.1
		c-0.2,0.1-0.4,0.1-0.6,0.2S18.8,6.9,18.6,7c-0.2,0.1-0.3,0.3-0.5,0.5v5.3c0.3,0.3,0.6,0.5,0.9,0.7s0.7,0.2,1,0.2
		c0.3,0,0.7-0.1,0.9-0.2c0.3-0.1,0.5-0.4,0.8-0.7c0.2-0.3,0.4-0.7,0.5-1.2c0.1-0.5,0.2-1.1,0.2-1.8c0-0.7,0-1.2-0.1-1.7
		c-0.1-0.4-0.2-0.8-0.4-1.1c-0.2-0.3-0.4-0.5-0.6-0.6C21.1,6.4,20.8,6.4,20.5,6.4z"/>
	<path class="st1" d="M30.2,16.2v-16h5.9c1.1,0,2,0.1,2.8,0.3c0.8,0.2,1.4,0.5,1.9,0.9s0.8,0.8,1.1,1.4s0.3,1.1,0.3,1.8
		c0,0.4-0.1,0.7-0.2,1c-0.1,0.3-0.3,0.6-0.5,0.9c-0.2,0.3-0.5,0.6-0.8,0.8c-0.3,0.2-0.8,0.4-1.2,0.6c1.1,0.3,1.8,0.7,2.3,1.2
		c0.5,0.6,0.8,1.3,0.8,2.2c0,0.7-0.1,1.3-0.4,1.9c-0.3,0.6-0.7,1.1-1.2,1.5c-0.5,0.4-1.1,0.8-1.9,1c-0.7,0.2-1.6,0.4-2.6,0.4H30.2z
		 M33.9,6.9h1.9c0.4,0,0.8,0,1.1-0.1c0.3-0.1,0.6-0.2,0.8-0.3c0.2-0.1,0.4-0.3,0.5-0.6c0.1-0.3,0.2-0.6,0.2-1c0-0.4,0-0.7-0.1-1
		c-0.1-0.3-0.2-0.5-0.4-0.6c-0.2-0.2-0.4-0.3-0.8-0.3S36.5,3,36.1,3h-2.2V6.9z M33.9,9.4v4h2.6c0.5,0,0.9-0.1,1.2-0.2
		c0.3-0.1,0.6-0.3,0.7-0.5c0.2-0.2,0.3-0.4,0.4-0.7c0.1-0.2,0.1-0.5,0.1-0.8c0-0.3,0-0.6-0.1-0.8c-0.1-0.2-0.2-0.4-0.4-0.6
		c-0.2-0.2-0.4-0.3-0.7-0.4c-0.3-0.1-0.7-0.1-1.2-0.1H33.9z"/>
	<path class="st1" d="M62.1,8.2c0,1.2-0.2,2.2-0.6,3.2c-0.4,1-1,1.9-1.7,2.6c-0.7,0.7-1.6,1.3-2.6,1.7s-2.2,0.6-3.4,0.6
		c-1.2,0-2.4-0.2-3.4-0.6c-1-0.4-1.9-1-2.6-1.7c-0.7-0.7-1.3-1.6-1.7-2.6c-0.4-1-0.6-2.1-0.6-3.2S45.6,5.9,46,5c0.4-1,1-1.9,1.7-2.6
		c0.7-0.7,1.6-1.3,2.6-1.7c1-0.4,2.2-0.6,3.4-0.6c1.2,0,2.4,0.2,3.4,0.6c1,0.4,1.9,1,2.6,1.7S61.1,4,61.5,5C61.9,6,62.1,7,62.1,8.2z
		 M58.3,8.2c0-0.8-0.1-1.5-0.3-2.1c-0.2-0.6-0.5-1.2-0.9-1.6c-0.4-0.4-0.9-0.8-1.4-1c-0.6-0.2-1.2-0.4-1.9-0.4
		c-0.7,0-1.4,0.1-1.9,0.4c-0.6,0.2-1,0.6-1.4,1c-0.4,0.4-0.7,1-0.9,1.6c-0.2,0.6-0.3,1.3-0.3,2.1c0,0.8,0.1,1.5,0.3,2.2
		c0.2,0.6,0.5,1.2,0.9,1.6c0.4,0.4,0.9,0.8,1.4,1s1.2,0.3,1.9,0.3c0.7,0,1.3-0.1,1.9-0.3c0.6-0.2,1-0.6,1.4-1c0.4-0.4,0.7-1,0.9-1.6
		C58.2,9.7,58.3,9,58.3,8.2z"/>
	<path class="st1" d="M79.7,16.2h-2.9c-0.3,0-0.6-0.1-0.8-0.2c-0.2-0.1-0.4-0.3-0.4-0.6l-0.9-2.8h-6.1l-0.9,2.8
		c-0.1,0.2-0.2,0.4-0.4,0.6c-0.2,0.2-0.5,0.2-0.8,0.2h-2.9l6.2-16h3.8L79.7,16.2z M69.4,10.1h4.4l-1.5-4.4c-0.1-0.3-0.2-0.6-0.3-1
		c-0.1-0.4-0.3-0.8-0.4-1.2c-0.1,0.4-0.2,0.9-0.4,1.2c-0.1,0.4-0.2,0.7-0.4,1L69.4,10.1z"/>
	<path class="st1" d="M86.2,10.3v5.9h-3.7v-16h5.2c1.2,0,2.1,0.1,3,0.4c0.8,0.2,1.5,0.6,2,1s0.9,0.9,1.1,1.5
		c0.2,0.6,0.4,1.2,0.4,1.9c0,0.5-0.1,1-0.2,1.5c-0.1,0.5-0.3,0.9-0.6,1.3c-0.3,0.4-0.6,0.7-1,1.1C91.9,9,91.5,9.3,91,9.5
		c0.2,0.1,0.5,0.3,0.7,0.5c0.2,0.2,0.4,0.4,0.6,0.7l3.4,5.6h-3.4c-0.6,0-1.1-0.2-1.3-0.7l-2.7-4.7c-0.1-0.2-0.3-0.4-0.4-0.4
		s-0.4-0.1-0.7-0.1H86.2z M86.2,7.7h1.5c0.5,0,0.9-0.1,1.3-0.2c0.4-0.1,0.6-0.3,0.9-0.5c0.2-0.2,0.4-0.5,0.5-0.8
		c0.1-0.3,0.2-0.6,0.2-1c0-0.7-0.2-1.3-0.7-1.6C89.4,3.2,88.7,3,87.7,3h-1.5V7.7z"/>
	<path class="st1" d="M113.1,8.2c0,1.2-0.2,2.2-0.6,3.2c-0.4,1-1,1.8-1.7,2.5c-0.7,0.7-1.6,1.3-2.6,1.7c-1,0.4-2.2,0.6-3.4,0.6h-6.2
		v-16h6.2c1.2,0,2.4,0.2,3.4,0.6s1.9,1,2.6,1.7c0.7,0.7,1.3,1.6,1.7,2.5C112.9,6,113.1,7,113.1,8.2z M109.3,8.2
		c0-0.8-0.1-1.5-0.3-2.1c-0.2-0.6-0.5-1.2-0.9-1.6c-0.4-0.4-0.9-0.8-1.4-1c-0.6-0.2-1.2-0.4-1.9-0.4h-2.5v10.3h2.5
		c0.7,0,1.3-0.1,1.9-0.4c0.6-0.2,1-0.6,1.4-1c0.4-0.4,0.7-1,0.9-1.6C109.2,9.7,109.3,9,109.3,8.2z"/>
</g>
</svg>
