<?xml version="1.0" encoding="utf-8"?>
<!-- Generator: Adobe Illustrator 21.0.0, SVG Export Plug-In . SVG Version: 6.00 Build 0)  -->
<svg version="1.1" id="Icons" xmlns="http://www.w3.org/2000/svg" xmlns:xlink="http://www.w3.org/1999/xlink" x="0px" y="0px"
	 viewBox="0 0 86.9 82.1" style="enable-background:new 0 0 86.9 82.1;" xml:space="preserve">
<style type="text/css">
	.st0{fill:#EDEDED;}
	.st1{fill:#65A2FF;stroke:#29568C;stroke-width:2.3922;stroke-miterlimit:10;}
	.st2{fill:#FFFFFF;stroke:#29568C;stroke-width:2.473;stroke-miterlimit:10;}
	.st3{fill:none;stroke:#BCC0C4;stroke-width:2.7595;stroke-miterlimit:10;}
</style>
<g>
	<circle class="st0" cx="43.3" cy="40.3" r="39.5"/>
</g>
<g>
	<path class="st1" d="M32.1,74.9H15.7c-2.3,0-4.1-1.9-4.1-4.1V12.2c0-2.3,1.9-4.1,4.1-4.1h16.4c2.3,0,4.1,1.9,4.1,4.1v58.5
		C36.3,73,34.4,74.9,32.1,74.9z"/>
	<path class="st2" d="M71.4,34.5H53.9c-2.4,0-4.4-2-4.4-4.4V12.5c0-2.4,2-4.4,4.4-4.4h17.6c2.4,0,4.4,2,4.4,4.4v17.6
		C75.8,32.5,73.9,34.5,71.4,34.5z"/>
	<path class="st2" d="M71.4,74.9H53.9c-2.4,0-4.4-2-4.4-4.4V52.9c0-2.4,2-4.4,4.4-4.4h17.6c2.4,0,4.4,2,4.4,4.4v17.6
		C75.8,72.9,73.9,74.9,71.4,74.9z"/>
</g>
<g>
	<path class="st3" d="M83.9,65.7c4.2,6.5-0.4,15.1-8.2,15.1"/>
	<path class="st3" d="M11.1,80.8c-7.7,0-12.4-8.6-8.2-15.1"/>
</g>
<g>
	<path class="st3" d="M83.9,16.4c4.2-6.5-0.4-15.1-8.2-15.1"/>
	<path class="st3" d="M11.1,1.4C3.4,1.4-1.3,10,3,16.4"/>
</g>
</svg>
