<?xml version="1.0" encoding="utf-8"?>
<!-- Generator: Adobe Illustrator 21.0.0, SVG Export Plug-In . SVG Version: 6.00 Build 0)  -->
<svg version="1.1" id="Icons" xmlns="http://www.w3.org/2000/svg" xmlns:xlink="http://www.w3.org/1999/xlink" x="0px" y="0px"
	 viewBox="0 0 17.4 17.4" style="enable-background:new 0 0 17.4 17.4;" xml:space="preserve">
<style type="text/css">
	.st0{fill:none;stroke:#8EA3B1;stroke-width:1.4;stroke-miterlimit:10;}
</style>
<g>
	<path class="st0" d="M5.7,16.7h-4c-0.6,0-1-0.4-1-1v-14c0-0.6,0.4-1,1-1h4c0.6,0,1,0.4,1,1v14C6.7,16.3,6.3,16.7,5.7,16.7z"/>
	<path class="st0" d="M15.7,6.7h-4c-0.6,0-1-0.4-1-1v-4c0-0.6,0.4-1,1-1h4c0.6,0,1,0.4,1,1v4C16.7,6.3,16.3,6.7,15.7,6.7z"/>
	<path class="st0" d="M15.7,16.7h-4c-0.6,0-1-0.4-1-1v-4c0-0.6,0.4-1,1-1h4c0.6,0,1,0.4,1,1v4C16.7,16.3,16.3,16.7,15.7,16.7z"/>
</g>
</svg>
