<?xml version="1.0" encoding="utf-8"?>
<!-- Generator: Adobe Illustrator 21.0.0, SVG Export Plug-In . SVG Version: 6.00 Build 0)  -->
<svg version="1.1" id="Icons" xmlns="http://www.w3.org/2000/svg" xmlns:xlink="http://www.w3.org/1999/xlink" x="0px" y="0px"
	 viewBox="0 0 13 13" style="enable-background:new 0 0 13 13;" xml:space="preserve">
<style type="text/css">
	.st0{fill:#6c7e8a;}
</style>
<path class="st0" d="M5.6,9.6L5.6,9.6c0.3,0.3,0.7,0.3,1,0L9.2,7c0.3-0.3,0.3-0.7,0-1L6.6,3.4c-0.3-0.3-0.7-0.3-1,0l0,0
	c-0.3,0.3-0.3,0.7,0,1L7,5.8H0.7C0.3,5.8,0,6.1,0,6.5v0c0,0.4,0.3,0.7,0.7,0.7H7L5.6,8.6C5.3,8.9,5.3,9.3,5.6,9.6z M10,0H3
	C1.3,0,0,1.3,0,3v0.6C0,4,0.3,4.3,0.7,4.3h0c0.4,0,0.7-0.3,0.7-0.7V3.4c0-1.1,0.9-2,2-2h6.1c1.1,0,2,0.9,2,2v6.1c0,1.1-0.9,2-2,2
	H3.4c-1.1,0-2-0.9-2-2V9.4c0-0.4-0.3-0.7-0.7-0.7h0C0.3,8.7,0,9,0,9.4V10c0,1.7,1.3,3,3,3h7c1.6,0,3-1.4,3-3V3C13,1.4,11.6,0,10,0z"
	/>
</svg>
